# xmcd CD database file
#
# Track frame offsets:
#	150
#	24810
#	39055
#	56474
#	75149
#	97401
#	124028
#	139498
#	157511
#	170873
#	187757
#	203813
#	225343
#	244621
#
# Disc length: 3474 seconds
#
# Revision: 0
# Processed by: cddbd v1.5.2PL0 Copyright (c) Steve Scherf et al.
# Submitted via: CDex 1.51
#
DISCID=9d0d900e
DTITLE=Miriam Stockley - Eternal
DYEAR=2007
DGENRE=New Age
TTITLE0=Alla Notte, Adagio
TTITLE1=Hem Na Nkosi Bo, Rondeau
TTITLE2=Pace Al Cuore, Prelude
TTITLE3=Choro Finito, Sarabande
TTITLE4=The Star Of County Down
TTITLE5=Se La Luna Fosse Donna, Moonlight Sonata
TTITLE6=Fantasy, Sicut Cervus
TTITLE7=Adiemus
TTITLE8=Ngana Ka Lona, Bourie
TTITLE9=Un Ricordo, Je Crois Entendre Encore
TTITLE10=Nocturne
TTITLE11=Luce E Speranza, Bridal Chorus
TTITLE12=Prelude 2
TTITLE13=Quanta Vita, Nimrod
EXTD=YEAR: 2007
EXTT0=
EXTT1=
EXTT2=
EXTT3=
EXTT4=
EXTT5=
EXTT6=
EXTT7=
EXTT8=
EXTT9=
EXTT10=
EXTT11=
EXTT12=
EXTT13=
PLAYORDER=
